<svg width="256" height="256" viewBox="0 0 256 256" fill="none" xmlns="http://www.w3.org/2000/svg">
<g clip-path="url(#clip0_20156_844)">
<rect width="256" height="256" fill="#B5FD4C"/>
<path fill-rule="evenodd" clip-rule="evenodd" d="M135.142 92.9514C135.734 91.916 136.443 90.9489 137.259 90.0747C147.857 78.7485 161.954 72.9657 179.024 73.1269H179.009C207.077 73.5469 224.337 95.4521 221.223 126.598C218.109 157.749 193.478 179.16 160.874 178.726C145.569 178.506 134.483 173.202 126.676 161.167L127.258 160.127V160.108C130.973 153.446 137.875 141.05 143.614 131.716C146.864 141.348 153.957 146.193 164.105 146.295C175.103 146.525 184.078 138.959 185.368 126.061C186.722 112.527 180.514 105.391 166.906 105.347C155.863 105.547 147.7 111.457 141.746 123.453L123.763 154.12C123.416 154.716 123.034 155.297 122.624 155.854C111.176 171.243 96.8436 177.808 78.1757 177.641C50.1078 177.231 32.8476 155.326 35.9614 124.175C39.0752 93.0247 63.7067 71.6128 96.3059 72.0475C111.533 72.2233 122.717 77.5665 130.469 89.4691C125.596 96.7903 118.567 109.65 113.527 118.945C110.257 109.386 103.179 104.58 93.065 104.483C82.0373 104.473 73.092 111.819 71.8015 124.718C70.511 137.616 77.3154 145.231 90.2739 145.436C101.062 145.641 109.46 139.541 115.414 127.55L135.133 92.9612H135.142V92.9514Z" fill="#111111"/>
</g>
<defs>
<clipPath id="clip0_20156_844">
<rect width="256" height="256" rx="52" fill="white"/>
</clipPath>
</defs>
</svg>
